<mxfile host="app.diagrams.net" modified="2023-04-16T13:41:01.075Z" agent="Mozilla/5.0 (Macintosh; Intel Mac OS X 10_15_7) AppleWebKit/537.36 (KHTML, like Gecko) Chrome/111.0.0.0 Safari/537.36" etag="9fjM-x-dP-Vp6XCnf1hu" version="21.1.8" type="device">
  <diagram name="Page-1" id="K5RO5vAFSD0qzrX4L_Oe">
    <mxGraphModel dx="713" dy="437" grid="1" gridSize="10" guides="1" tooltips="1" connect="1" arrows="1" fold="1" page="1" pageScale="1" pageWidth="850" pageHeight="1100" math="0" shadow="0">
      <root>
        <mxCell id="0" />
        <mxCell id="1" parent="0" />
        <mxCell id="9Hna-pLqmcIODTV9Pxg_-7" value="&lt;div style=&quot;&quot;&gt;&lt;br&gt;&lt;/div&gt;" style="ellipse;whiteSpace=wrap;html=1;aspect=fixed;align=center;" vertex="1" parent="1">
          <mxGeometry x="410" y="40" width="20" height="20" as="geometry" />
        </mxCell>
        <mxCell id="9Hna-pLqmcIODTV9Pxg_-9" value="" style="endArrow=none;html=1;rounded=0;strokeWidth=2;" edge="1" parent="1">
          <mxGeometry width="50" height="50" relative="1" as="geometry">
            <mxPoint x="420" y="40" as="sourcePoint" />
            <mxPoint x="420" y="20" as="targetPoint" />
          </mxGeometry>
        </mxCell>
        <mxCell id="9Hna-pLqmcIODTV9Pxg_-10" value="&lt;div style=&quot;&quot;&gt;&lt;br&gt;&lt;/div&gt;" style="ellipse;whiteSpace=wrap;html=1;aspect=fixed;align=center;" vertex="1" parent="1">
          <mxGeometry x="380" y="70" width="20" height="20" as="geometry" />
        </mxCell>
        <mxCell id="9Hna-pLqmcIODTV9Pxg_-11" value="" style="endArrow=none;html=1;rounded=0;strokeWidth=2;exitX=0;exitY=1;exitDx=0;exitDy=0;strokeColor=#FF0000;" edge="1" parent="1" source="9Hna-pLqmcIODTV9Pxg_-7" target="9Hna-pLqmcIODTV9Pxg_-10">
          <mxGeometry width="50" height="50" relative="1" as="geometry">
            <mxPoint x="430" y="50" as="sourcePoint" />
            <mxPoint x="430" y="30" as="targetPoint" />
          </mxGeometry>
        </mxCell>
        <mxCell id="9Hna-pLqmcIODTV9Pxg_-12" value="" style="endArrow=none;html=1;rounded=0;strokeWidth=2;entryX=1;entryY=1;entryDx=0;entryDy=0;" edge="1" parent="1" target="9Hna-pLqmcIODTV9Pxg_-7">
          <mxGeometry width="50" height="50" relative="1" as="geometry">
            <mxPoint x="440" y="70" as="sourcePoint" />
            <mxPoint x="430" y="30" as="targetPoint" />
          </mxGeometry>
        </mxCell>
        <mxCell id="9Hna-pLqmcIODTV9Pxg_-13" value="" style="endArrow=none;html=1;rounded=0;strokeWidth=2;entryX=0;entryY=1;entryDx=0;entryDy=0;" edge="1" parent="1" target="9Hna-pLqmcIODTV9Pxg_-10">
          <mxGeometry width="50" height="50" relative="1" as="geometry">
            <mxPoint x="370" y="100" as="sourcePoint" />
            <mxPoint x="437" y="67" as="targetPoint" />
          </mxGeometry>
        </mxCell>
        <mxCell id="9Hna-pLqmcIODTV9Pxg_-14" value="" style="endArrow=none;html=1;rounded=0;strokeWidth=2;entryX=1;entryY=1;entryDx=0;entryDy=0;" edge="1" parent="1" target="9Hna-pLqmcIODTV9Pxg_-10">
          <mxGeometry width="50" height="50" relative="1" as="geometry">
            <mxPoint x="410" y="100" as="sourcePoint" />
            <mxPoint x="393" y="97" as="targetPoint" />
          </mxGeometry>
        </mxCell>
        <mxCell id="9Hna-pLqmcIODTV9Pxg_-35" value="" style="endArrow=classic;html=1;rounded=0;strokeWidth=2;strokeColor=#999999;" edge="1" parent="1">
          <mxGeometry width="50" height="50" relative="1" as="geometry">
            <mxPoint x="360" y="110" as="sourcePoint" />
            <mxPoint x="320" y="150" as="targetPoint" />
            <Array as="points" />
          </mxGeometry>
        </mxCell>
        <mxCell id="9Hna-pLqmcIODTV9Pxg_-36" value="" style="group" vertex="1" connectable="0" parent="1">
          <mxGeometry x="230" y="140" width="100" height="110" as="geometry" />
        </mxCell>
        <mxCell id="9Hna-pLqmcIODTV9Pxg_-15" value="&lt;div style=&quot;&quot;&gt;&lt;br&gt;&lt;/div&gt;" style="ellipse;whiteSpace=wrap;html=1;aspect=fixed;align=center;" vertex="1" parent="9Hna-pLqmcIODTV9Pxg_-36">
          <mxGeometry x="70" y="20" width="20" height="20" as="geometry" />
        </mxCell>
        <mxCell id="9Hna-pLqmcIODTV9Pxg_-16" value="" style="endArrow=none;html=1;rounded=0;strokeWidth=2;" edge="1" parent="9Hna-pLqmcIODTV9Pxg_-36">
          <mxGeometry width="50" height="50" relative="1" as="geometry">
            <mxPoint x="80" y="20" as="sourcePoint" />
            <mxPoint x="80" as="targetPoint" />
          </mxGeometry>
        </mxCell>
        <mxCell id="9Hna-pLqmcIODTV9Pxg_-17" value="&lt;div style=&quot;&quot;&gt;&lt;br&gt;&lt;/div&gt;" style="ellipse;whiteSpace=wrap;html=1;aspect=fixed;align=center;" vertex="1" parent="9Hna-pLqmcIODTV9Pxg_-36">
          <mxGeometry x="40" y="50" width="20" height="20" as="geometry" />
        </mxCell>
        <mxCell id="9Hna-pLqmcIODTV9Pxg_-18" value="" style="endArrow=none;html=1;rounded=0;strokeWidth=2;exitX=0;exitY=1;exitDx=0;exitDy=0;strokeColor=#FF0000;" edge="1" parent="9Hna-pLqmcIODTV9Pxg_-36" source="9Hna-pLqmcIODTV9Pxg_-15" target="9Hna-pLqmcIODTV9Pxg_-17">
          <mxGeometry width="50" height="50" relative="1" as="geometry">
            <mxPoint x="90" y="30" as="sourcePoint" />
            <mxPoint x="90" y="10" as="targetPoint" />
          </mxGeometry>
        </mxCell>
        <mxCell id="9Hna-pLqmcIODTV9Pxg_-19" value="" style="endArrow=none;html=1;rounded=0;strokeWidth=2;entryX=1;entryY=1;entryDx=0;entryDy=0;" edge="1" parent="9Hna-pLqmcIODTV9Pxg_-36" target="9Hna-pLqmcIODTV9Pxg_-15">
          <mxGeometry width="50" height="50" relative="1" as="geometry">
            <mxPoint x="100" y="50" as="sourcePoint" />
            <mxPoint x="90" y="10" as="targetPoint" />
          </mxGeometry>
        </mxCell>
        <mxCell id="9Hna-pLqmcIODTV9Pxg_-20" value="" style="endArrow=none;html=1;rounded=0;strokeWidth=2;entryX=0;entryY=1;entryDx=0;entryDy=0;exitX=1;exitY=0;exitDx=0;exitDy=0;strokeColor=#FF0000;" edge="1" parent="9Hna-pLqmcIODTV9Pxg_-36" target="9Hna-pLqmcIODTV9Pxg_-17" source="9Hna-pLqmcIODTV9Pxg_-22">
          <mxGeometry width="50" height="50" relative="1" as="geometry">
            <mxPoint x="30" y="80" as="sourcePoint" />
            <mxPoint x="97" y="47" as="targetPoint" />
          </mxGeometry>
        </mxCell>
        <mxCell id="9Hna-pLqmcIODTV9Pxg_-21" value="" style="endArrow=none;html=1;rounded=0;strokeWidth=2;entryX=1;entryY=1;entryDx=0;entryDy=0;" edge="1" parent="9Hna-pLqmcIODTV9Pxg_-36" target="9Hna-pLqmcIODTV9Pxg_-17">
          <mxGeometry width="50" height="50" relative="1" as="geometry">
            <mxPoint x="70" y="80" as="sourcePoint" />
            <mxPoint x="53" y="77" as="targetPoint" />
          </mxGeometry>
        </mxCell>
        <mxCell id="9Hna-pLqmcIODTV9Pxg_-22" value="&lt;div style=&quot;&quot;&gt;&lt;br&gt;&lt;/div&gt;" style="ellipse;whiteSpace=wrap;html=1;aspect=fixed;align=center;" vertex="1" parent="9Hna-pLqmcIODTV9Pxg_-36">
          <mxGeometry x="10" y="80" width="20" height="20" as="geometry" />
        </mxCell>
        <mxCell id="9Hna-pLqmcIODTV9Pxg_-23" value="" style="endArrow=none;html=1;rounded=0;strokeWidth=2;entryX=1;entryY=1;entryDx=0;entryDy=0;" edge="1" parent="9Hna-pLqmcIODTV9Pxg_-36" target="9Hna-pLqmcIODTV9Pxg_-22">
          <mxGeometry width="50" height="50" relative="1" as="geometry">
            <mxPoint x="40" y="110" as="sourcePoint" />
            <mxPoint x="67" y="77" as="targetPoint" />
          </mxGeometry>
        </mxCell>
        <mxCell id="9Hna-pLqmcIODTV9Pxg_-24" value="" style="endArrow=none;html=1;rounded=0;strokeWidth=2;entryX=0;entryY=1;entryDx=0;entryDy=0;" edge="1" parent="9Hna-pLqmcIODTV9Pxg_-36" target="9Hna-pLqmcIODTV9Pxg_-22">
          <mxGeometry width="50" height="50" relative="1" as="geometry">
            <mxPoint y="110" as="sourcePoint" />
            <mxPoint x="37" y="107" as="targetPoint" />
          </mxGeometry>
        </mxCell>
        <mxCell id="9Hna-pLqmcIODTV9Pxg_-64" value="" style="endArrow=classic;html=1;rounded=0;strokeWidth=2;strokeColor=#999999;exitX=0.875;exitY=0.667;exitDx=0;exitDy=0;exitPerimeter=0;" edge="1" parent="9Hna-pLqmcIODTV9Pxg_-36" source="9Hna-pLqmcIODTV9Pxg_-37">
          <mxGeometry width="50" height="50" relative="1" as="geometry">
            <mxPoint x="130" y="100" as="sourcePoint" />
            <mxPoint x="310" y="130" as="targetPoint" />
            <Array as="points" />
          </mxGeometry>
        </mxCell>
        <mxCell id="9Hna-pLqmcIODTV9Pxg_-40" value="" style="group" vertex="1" connectable="0" parent="1">
          <mxGeometry x="410" y="120" width="70" height="110" as="geometry" />
        </mxCell>
        <mxCell id="9Hna-pLqmcIODTV9Pxg_-25" value="&lt;div style=&quot;&quot;&gt;&lt;br&gt;&lt;/div&gt;" style="ellipse;whiteSpace=wrap;html=1;aspect=fixed;align=center;" vertex="1" parent="9Hna-pLqmcIODTV9Pxg_-40">
          <mxGeometry x="40" y="20" width="20" height="20" as="geometry" />
        </mxCell>
        <mxCell id="9Hna-pLqmcIODTV9Pxg_-26" value="" style="endArrow=none;html=1;rounded=0;strokeWidth=2;" edge="1" parent="9Hna-pLqmcIODTV9Pxg_-40">
          <mxGeometry width="50" height="50" relative="1" as="geometry">
            <mxPoint x="50" y="20" as="sourcePoint" />
            <mxPoint x="50" as="targetPoint" />
          </mxGeometry>
        </mxCell>
        <mxCell id="9Hna-pLqmcIODTV9Pxg_-27" value="&lt;div style=&quot;&quot;&gt;&lt;br&gt;&lt;/div&gt;" style="ellipse;whiteSpace=wrap;html=1;aspect=fixed;align=center;" vertex="1" parent="9Hna-pLqmcIODTV9Pxg_-40">
          <mxGeometry x="10" y="50" width="20" height="20" as="geometry" />
        </mxCell>
        <mxCell id="9Hna-pLqmcIODTV9Pxg_-28" value="" style="endArrow=none;html=1;rounded=0;strokeWidth=2;exitX=0;exitY=1;exitDx=0;exitDy=0;strokeColor=#FF0000;" edge="1" parent="9Hna-pLqmcIODTV9Pxg_-40" source="9Hna-pLqmcIODTV9Pxg_-25" target="9Hna-pLqmcIODTV9Pxg_-27">
          <mxGeometry width="50" height="50" relative="1" as="geometry">
            <mxPoint x="60" y="30" as="sourcePoint" />
            <mxPoint x="60" y="10" as="targetPoint" />
          </mxGeometry>
        </mxCell>
        <mxCell id="9Hna-pLqmcIODTV9Pxg_-29" value="" style="endArrow=none;html=1;rounded=0;strokeWidth=2;entryX=1;entryY=1;entryDx=0;entryDy=0;" edge="1" parent="9Hna-pLqmcIODTV9Pxg_-40" target="9Hna-pLqmcIODTV9Pxg_-25">
          <mxGeometry width="50" height="50" relative="1" as="geometry">
            <mxPoint x="70" y="50" as="sourcePoint" />
            <mxPoint x="60" y="10" as="targetPoint" />
          </mxGeometry>
        </mxCell>
        <mxCell id="9Hna-pLqmcIODTV9Pxg_-30" value="" style="endArrow=none;html=1;rounded=0;strokeWidth=2;entryX=0;entryY=1;entryDx=0;entryDy=0;" edge="1" parent="9Hna-pLqmcIODTV9Pxg_-40" target="9Hna-pLqmcIODTV9Pxg_-27">
          <mxGeometry width="50" height="50" relative="1" as="geometry">
            <mxPoint y="80" as="sourcePoint" />
            <mxPoint x="67" y="47" as="targetPoint" />
          </mxGeometry>
        </mxCell>
        <mxCell id="9Hna-pLqmcIODTV9Pxg_-31" value="" style="endArrow=none;html=1;rounded=0;strokeWidth=2;entryX=1;entryY=1;entryDx=0;entryDy=0;exitX=0;exitY=0;exitDx=0;exitDy=0;strokeColor=#FF0000;" edge="1" parent="9Hna-pLqmcIODTV9Pxg_-40" target="9Hna-pLqmcIODTV9Pxg_-27" source="9Hna-pLqmcIODTV9Pxg_-32">
          <mxGeometry width="50" height="50" relative="1" as="geometry">
            <mxPoint x="40" y="80" as="sourcePoint" />
            <mxPoint x="23" y="77" as="targetPoint" />
          </mxGeometry>
        </mxCell>
        <mxCell id="9Hna-pLqmcIODTV9Pxg_-32" value="&lt;div style=&quot;&quot;&gt;&lt;br&gt;&lt;/div&gt;" style="ellipse;whiteSpace=wrap;html=1;aspect=fixed;align=center;" vertex="1" parent="9Hna-pLqmcIODTV9Pxg_-40">
          <mxGeometry x="40" y="80" width="20" height="20" as="geometry" />
        </mxCell>
        <mxCell id="9Hna-pLqmcIODTV9Pxg_-33" value="" style="endArrow=none;html=1;rounded=0;strokeWidth=2;entryX=0;entryY=1;entryDx=0;entryDy=0;" edge="1" parent="9Hna-pLqmcIODTV9Pxg_-40" target="9Hna-pLqmcIODTV9Pxg_-32">
          <mxGeometry width="50" height="50" relative="1" as="geometry">
            <mxPoint x="35" y="110" as="sourcePoint" />
            <mxPoint x="23" y="77" as="targetPoint" />
          </mxGeometry>
        </mxCell>
        <mxCell id="9Hna-pLqmcIODTV9Pxg_-34" value="" style="endArrow=none;html=1;rounded=0;strokeWidth=2;entryX=1;entryY=1;entryDx=0;entryDy=0;" edge="1" parent="9Hna-pLqmcIODTV9Pxg_-40" target="9Hna-pLqmcIODTV9Pxg_-32">
          <mxGeometry width="50" height="50" relative="1" as="geometry">
            <mxPoint x="65" y="110" as="sourcePoint" />
            <mxPoint x="33" y="87" as="targetPoint" />
          </mxGeometry>
        </mxCell>
        <mxCell id="9Hna-pLqmcIODTV9Pxg_-46" value="" style="endArrow=classic;html=1;rounded=0;strokeColor=#0000FF;" edge="1" parent="9Hna-pLqmcIODTV9Pxg_-40">
          <mxGeometry width="50" height="50" relative="1" as="geometry">
            <mxPoint x="10" y="30" as="sourcePoint" />
            <mxPoint x="35" y="40" as="targetPoint" />
          </mxGeometry>
        </mxCell>
        <mxCell id="9Hna-pLqmcIODTV9Pxg_-41" value="&lt;font color=&quot;#999999&quot;&gt;insert&lt;/font&gt;" style="text;html=1;align=center;verticalAlign=middle;resizable=0;points=[];autosize=1;strokeColor=none;fillColor=none;" vertex="1" parent="1">
          <mxGeometry x="330" y="120" width="50" height="30" as="geometry" />
        </mxCell>
        <mxCell id="9Hna-pLqmcIODTV9Pxg_-42" value="" style="endArrow=classic;html=1;rounded=0;strokeWidth=2;strokeColor=#999999;" edge="1" parent="1">
          <mxGeometry width="50" height="50" relative="1" as="geometry">
            <mxPoint x="420" y="110" as="sourcePoint" />
            <mxPoint x="450" y="140" as="targetPoint" />
            <Array as="points" />
          </mxGeometry>
        </mxCell>
        <mxCell id="9Hna-pLqmcIODTV9Pxg_-43" value="&lt;font color=&quot;#999999&quot;&gt;insert&lt;/font&gt;" style="text;html=1;align=center;verticalAlign=middle;resizable=0;points=[];autosize=1;strokeColor=none;fillColor=none;" vertex="1" parent="1">
          <mxGeometry x="420" y="100" width="50" height="30" as="geometry" />
        </mxCell>
        <mxCell id="9Hna-pLqmcIODTV9Pxg_-47" value="" style="endArrow=classic;html=1;rounded=0;strokeWidth=2;strokeColor=#999999;exitX=0.2;exitY=0.75;exitDx=0;exitDy=0;exitPerimeter=0;" edge="1" parent="1" source="9Hna-pLqmcIODTV9Pxg_-45">
          <mxGeometry width="50" height="50" relative="1" as="geometry">
            <mxPoint x="410" y="170" as="sourcePoint" />
            <mxPoint x="330" y="170" as="targetPoint" />
            <Array as="points" />
          </mxGeometry>
        </mxCell>
        <mxCell id="9Hna-pLqmcIODTV9Pxg_-58" value="" style="group" vertex="1" connectable="0" parent="1">
          <mxGeometry x="540" y="210" width="100" height="80" as="geometry" />
        </mxCell>
        <mxCell id="9Hna-pLqmcIODTV9Pxg_-48" value="&lt;div style=&quot;&quot;&gt;&lt;br&gt;&lt;/div&gt;" style="ellipse;whiteSpace=wrap;html=1;aspect=fixed;align=center;" vertex="1" parent="9Hna-pLqmcIODTV9Pxg_-58">
          <mxGeometry x="40" y="20" width="20" height="20" as="geometry" />
        </mxCell>
        <mxCell id="9Hna-pLqmcIODTV9Pxg_-49" value="" style="endArrow=none;html=1;rounded=0;strokeWidth=2;" edge="1" parent="9Hna-pLqmcIODTV9Pxg_-58">
          <mxGeometry width="50" height="50" relative="1" as="geometry">
            <mxPoint x="50" y="20" as="sourcePoint" />
            <mxPoint x="50" as="targetPoint" />
          </mxGeometry>
        </mxCell>
        <mxCell id="9Hna-pLqmcIODTV9Pxg_-50" value="&lt;div style=&quot;&quot;&gt;&lt;br&gt;&lt;/div&gt;" style="ellipse;whiteSpace=wrap;html=1;aspect=fixed;align=center;" vertex="1" parent="9Hna-pLqmcIODTV9Pxg_-58">
          <mxGeometry x="10" y="50" width="20" height="20" as="geometry" />
        </mxCell>
        <mxCell id="9Hna-pLqmcIODTV9Pxg_-51" value="" style="endArrow=none;html=1;rounded=0;strokeWidth=2;exitX=0;exitY=1;exitDx=0;exitDy=0;strokeColor=#FF0000;" edge="1" parent="9Hna-pLqmcIODTV9Pxg_-58" source="9Hna-pLqmcIODTV9Pxg_-48" target="9Hna-pLqmcIODTV9Pxg_-50">
          <mxGeometry width="50" height="50" relative="1" as="geometry">
            <mxPoint x="60" y="30" as="sourcePoint" />
            <mxPoint x="60" y="10" as="targetPoint" />
          </mxGeometry>
        </mxCell>
        <mxCell id="9Hna-pLqmcIODTV9Pxg_-52" value="" style="endArrow=none;html=1;rounded=0;strokeWidth=2;entryX=1;entryY=1;entryDx=0;entryDy=0;exitX=0;exitY=0;exitDx=0;exitDy=0;strokeColor=#FF0000;" edge="1" parent="9Hna-pLqmcIODTV9Pxg_-58" target="9Hna-pLqmcIODTV9Pxg_-48" source="9Hna-pLqmcIODTV9Pxg_-55">
          <mxGeometry width="50" height="50" relative="1" as="geometry">
            <mxPoint x="70" y="50" as="sourcePoint" />
            <mxPoint x="60" y="10" as="targetPoint" />
          </mxGeometry>
        </mxCell>
        <mxCell id="9Hna-pLqmcIODTV9Pxg_-53" value="" style="endArrow=none;html=1;rounded=0;strokeWidth=2;entryX=0;entryY=1;entryDx=0;entryDy=0;" edge="1" parent="9Hna-pLqmcIODTV9Pxg_-58" target="9Hna-pLqmcIODTV9Pxg_-50">
          <mxGeometry width="50" height="50" relative="1" as="geometry">
            <mxPoint y="80" as="sourcePoint" />
            <mxPoint x="67" y="47" as="targetPoint" />
          </mxGeometry>
        </mxCell>
        <mxCell id="9Hna-pLqmcIODTV9Pxg_-54" value="" style="endArrow=none;html=1;rounded=0;strokeWidth=2;entryX=1;entryY=1;entryDx=0;entryDy=0;" edge="1" parent="9Hna-pLqmcIODTV9Pxg_-58" target="9Hna-pLqmcIODTV9Pxg_-50">
          <mxGeometry width="50" height="50" relative="1" as="geometry">
            <mxPoint x="40" y="80" as="sourcePoint" />
            <mxPoint x="23" y="77" as="targetPoint" />
          </mxGeometry>
        </mxCell>
        <mxCell id="9Hna-pLqmcIODTV9Pxg_-55" value="&lt;div style=&quot;&quot;&gt;&lt;br&gt;&lt;/div&gt;" style="ellipse;whiteSpace=wrap;html=1;aspect=fixed;align=center;" vertex="1" parent="9Hna-pLqmcIODTV9Pxg_-58">
          <mxGeometry x="70" y="50" width="20" height="20" as="geometry" />
        </mxCell>
        <mxCell id="9Hna-pLqmcIODTV9Pxg_-56" value="" style="endArrow=none;html=1;rounded=0;strokeWidth=2;entryX=0;entryY=1;entryDx=0;entryDy=0;" edge="1" parent="9Hna-pLqmcIODTV9Pxg_-58" target="9Hna-pLqmcIODTV9Pxg_-55">
          <mxGeometry width="50" height="50" relative="1" as="geometry">
            <mxPoint x="60" y="80" as="sourcePoint" />
            <mxPoint x="127" y="47" as="targetPoint" />
          </mxGeometry>
        </mxCell>
        <mxCell id="9Hna-pLqmcIODTV9Pxg_-57" value="" style="endArrow=none;html=1;rounded=0;strokeWidth=2;entryX=1;entryY=1;entryDx=0;entryDy=0;" edge="1" parent="9Hna-pLqmcIODTV9Pxg_-58" target="9Hna-pLqmcIODTV9Pxg_-55">
          <mxGeometry width="50" height="50" relative="1" as="geometry">
            <mxPoint x="100" y="80" as="sourcePoint" />
            <mxPoint x="83" y="77" as="targetPoint" />
          </mxGeometry>
        </mxCell>
        <mxCell id="9Hna-pLqmcIODTV9Pxg_-77" value="" style="endArrow=none;html=1;rounded=0;strokeColor=#0000FF;" edge="1" parent="9Hna-pLqmcIODTV9Pxg_-58">
          <mxGeometry width="50" height="50" relative="1" as="geometry">
            <mxPoint x="50" y="100" as="sourcePoint" />
            <mxPoint x="50" y="70" as="targetPoint" />
          </mxGeometry>
        </mxCell>
        <mxCell id="9Hna-pLqmcIODTV9Pxg_-78" value="" style="endArrow=classic;html=1;rounded=0;strokeColor=#0000FF;" edge="1" parent="9Hna-pLqmcIODTV9Pxg_-58">
          <mxGeometry width="50" height="50" relative="1" as="geometry">
            <mxPoint x="50" y="70" as="sourcePoint" />
            <mxPoint x="39" y="50" as="targetPoint" />
          </mxGeometry>
        </mxCell>
        <mxCell id="9Hna-pLqmcIODTV9Pxg_-62" value="" style="endArrow=classic;html=1;rounded=0;strokeWidth=2;strokeColor=#999999;" edge="1" parent="1">
          <mxGeometry width="50" height="50" relative="1" as="geometry">
            <mxPoint x="450" y="80" as="sourcePoint" />
            <mxPoint x="580" y="210" as="targetPoint" />
            <Array as="points" />
          </mxGeometry>
        </mxCell>
        <mxCell id="9Hna-pLqmcIODTV9Pxg_-63" value="&lt;font color=&quot;#999999&quot;&gt;insert&lt;/font&gt;" style="text;html=1;align=center;verticalAlign=middle;resizable=0;points=[];autosize=1;strokeColor=none;fillColor=none;" vertex="1" parent="1">
          <mxGeometry x="510" y="120" width="50" height="30" as="geometry" />
        </mxCell>
        <mxCell id="9Hna-pLqmcIODTV9Pxg_-37" value="&lt;font color=&quot;#0000ff&quot;&gt;right&lt;br&gt;rotate&lt;/font&gt;" style="text;html=1;align=center;verticalAlign=middle;resizable=0;points=[];autosize=1;strokeColor=none;fillColor=none;" vertex="1" parent="1">
          <mxGeometry x="325" y="195" width="50" height="40" as="geometry" />
        </mxCell>
        <mxCell id="9Hna-pLqmcIODTV9Pxg_-38" value="" style="endArrow=classic;html=1;rounded=0;exitX=0.125;exitY=0.333;exitDx=0;exitDy=0;exitPerimeter=0;strokeColor=#0000FF;" edge="1" parent="1" source="9Hna-pLqmcIODTV9Pxg_-37">
          <mxGeometry width="50" height="50" relative="1" as="geometry">
            <mxPoint x="300" y="170" as="sourcePoint" />
            <mxPoint x="300" y="190" as="targetPoint" />
          </mxGeometry>
        </mxCell>
        <mxCell id="9Hna-pLqmcIODTV9Pxg_-45" value="&lt;font color=&quot;#0000ff&quot;&gt;left&lt;br&gt;rotate&lt;/font&gt;" style="text;html=1;align=center;verticalAlign=middle;resizable=0;points=[];autosize=1;strokeColor=none;fillColor=none;" vertex="1" parent="1">
          <mxGeometry x="379.9988888888889" y="130.00333333333333" width="50" height="40" as="geometry" />
        </mxCell>
        <mxCell id="9Hna-pLqmcIODTV9Pxg_-65" value="" style="group" vertex="1" connectable="0" parent="1">
          <mxGeometry x="410" y="280" width="100" height="80" as="geometry" />
        </mxCell>
        <mxCell id="9Hna-pLqmcIODTV9Pxg_-66" value="&lt;div style=&quot;&quot;&gt;&lt;br&gt;&lt;/div&gt;" style="ellipse;whiteSpace=wrap;html=1;aspect=fixed;align=center;" vertex="1" parent="9Hna-pLqmcIODTV9Pxg_-65">
          <mxGeometry x="40" y="20" width="20" height="20" as="geometry" />
        </mxCell>
        <mxCell id="9Hna-pLqmcIODTV9Pxg_-67" value="" style="endArrow=none;html=1;rounded=0;strokeWidth=2;" edge="1" parent="9Hna-pLqmcIODTV9Pxg_-65">
          <mxGeometry width="50" height="50" relative="1" as="geometry">
            <mxPoint x="50" y="20" as="sourcePoint" />
            <mxPoint x="50" as="targetPoint" />
          </mxGeometry>
        </mxCell>
        <mxCell id="9Hna-pLqmcIODTV9Pxg_-68" value="&lt;div style=&quot;&quot;&gt;&lt;br&gt;&lt;/div&gt;" style="ellipse;whiteSpace=wrap;html=1;aspect=fixed;align=center;" vertex="1" parent="9Hna-pLqmcIODTV9Pxg_-65">
          <mxGeometry x="10" y="50" width="20" height="20" as="geometry" />
        </mxCell>
        <mxCell id="9Hna-pLqmcIODTV9Pxg_-69" value="" style="endArrow=none;html=1;rounded=0;strokeWidth=2;exitX=0;exitY=1;exitDx=0;exitDy=0;strokeColor=#000000;" edge="1" parent="9Hna-pLqmcIODTV9Pxg_-65" source="9Hna-pLqmcIODTV9Pxg_-66" target="9Hna-pLqmcIODTV9Pxg_-68">
          <mxGeometry width="50" height="50" relative="1" as="geometry">
            <mxPoint x="60" y="30" as="sourcePoint" />
            <mxPoint x="60" y="10" as="targetPoint" />
          </mxGeometry>
        </mxCell>
        <mxCell id="9Hna-pLqmcIODTV9Pxg_-70" value="" style="endArrow=none;html=1;rounded=0;strokeWidth=2;entryX=1;entryY=1;entryDx=0;entryDy=0;exitX=0;exitY=0;exitDx=0;exitDy=0;strokeColor=#000000;" edge="1" parent="9Hna-pLqmcIODTV9Pxg_-65" source="9Hna-pLqmcIODTV9Pxg_-73" target="9Hna-pLqmcIODTV9Pxg_-66">
          <mxGeometry width="50" height="50" relative="1" as="geometry">
            <mxPoint x="70" y="50" as="sourcePoint" />
            <mxPoint x="60" y="10" as="targetPoint" />
          </mxGeometry>
        </mxCell>
        <mxCell id="9Hna-pLqmcIODTV9Pxg_-71" value="" style="endArrow=none;html=1;rounded=0;strokeWidth=2;entryX=0;entryY=1;entryDx=0;entryDy=0;" edge="1" parent="9Hna-pLqmcIODTV9Pxg_-65" target="9Hna-pLqmcIODTV9Pxg_-68">
          <mxGeometry width="50" height="50" relative="1" as="geometry">
            <mxPoint y="80" as="sourcePoint" />
            <mxPoint x="67" y="47" as="targetPoint" />
          </mxGeometry>
        </mxCell>
        <mxCell id="9Hna-pLqmcIODTV9Pxg_-72" value="" style="endArrow=none;html=1;rounded=0;strokeWidth=2;entryX=1;entryY=1;entryDx=0;entryDy=0;" edge="1" parent="9Hna-pLqmcIODTV9Pxg_-65" target="9Hna-pLqmcIODTV9Pxg_-68">
          <mxGeometry width="50" height="50" relative="1" as="geometry">
            <mxPoint x="40" y="80" as="sourcePoint" />
            <mxPoint x="23" y="77" as="targetPoint" />
          </mxGeometry>
        </mxCell>
        <mxCell id="9Hna-pLqmcIODTV9Pxg_-73" value="&lt;div style=&quot;&quot;&gt;&lt;br&gt;&lt;/div&gt;" style="ellipse;whiteSpace=wrap;html=1;aspect=fixed;align=center;" vertex="1" parent="9Hna-pLqmcIODTV9Pxg_-65">
          <mxGeometry x="70" y="50" width="20" height="20" as="geometry" />
        </mxCell>
        <mxCell id="9Hna-pLqmcIODTV9Pxg_-74" value="" style="endArrow=none;html=1;rounded=0;strokeWidth=2;entryX=0;entryY=1;entryDx=0;entryDy=0;" edge="1" parent="9Hna-pLqmcIODTV9Pxg_-65" target="9Hna-pLqmcIODTV9Pxg_-73">
          <mxGeometry width="50" height="50" relative="1" as="geometry">
            <mxPoint x="60" y="80" as="sourcePoint" />
            <mxPoint x="127" y="47" as="targetPoint" />
          </mxGeometry>
        </mxCell>
        <mxCell id="9Hna-pLqmcIODTV9Pxg_-75" value="" style="endArrow=none;html=1;rounded=0;strokeWidth=2;entryX=1;entryY=1;entryDx=0;entryDy=0;" edge="1" parent="9Hna-pLqmcIODTV9Pxg_-65" target="9Hna-pLqmcIODTV9Pxg_-73">
          <mxGeometry width="50" height="50" relative="1" as="geometry">
            <mxPoint x="100" y="80" as="sourcePoint" />
            <mxPoint x="83" y="77" as="targetPoint" />
          </mxGeometry>
        </mxCell>
        <mxCell id="9Hna-pLqmcIODTV9Pxg_-76" value="&lt;font color=&quot;#0000ff&quot;&gt;flip&lt;br&gt;colors&lt;br&gt;&lt;/font&gt;" style="text;html=1;align=center;verticalAlign=middle;resizable=0;points=[];autosize=1;strokeColor=none;fillColor=none;" vertex="1" parent="1">
          <mxGeometry x="560" y="305" width="60" height="40" as="geometry" />
        </mxCell>
        <mxCell id="9Hna-pLqmcIODTV9Pxg_-79" value="" style="endArrow=classic;html=1;rounded=0;strokeColor=#0000FF;" edge="1" parent="1">
          <mxGeometry width="50" height="50" relative="1" as="geometry">
            <mxPoint x="590" y="280" as="sourcePoint" />
            <mxPoint x="600" y="260" as="targetPoint" />
          </mxGeometry>
        </mxCell>
        <mxCell id="9Hna-pLqmcIODTV9Pxg_-81" value="" style="endArrow=classic;html=1;rounded=0;strokeWidth=2;strokeColor=#999999;" edge="1" parent="1">
          <mxGeometry width="50" height="50" relative="1" as="geometry">
            <mxPoint x="577" y="320.0038461538462" as="sourcePoint" />
            <mxPoint x="477" y="320" as="targetPoint" />
            <Array as="points" />
          </mxGeometry>
        </mxCell>
      </root>
    </mxGraphModel>
  </diagram>
</mxfile>
